# xmcd CD database file
# Copyright (C) 1993-1998 Ti Kan
# 
# Track frame offsets:
#     182
#     21100
#     43090
#     58607
#     79100
#     96697
#     121262
#     141165
#     158187
#     176077
#     193782
#     206315
#     221885
#     240787
#     270750
#     292870
#     313965
# 
# Disc length: 4518 seconds
# 
# Revision: 1
# Processed by: cddbd v1.4b41PL1 Copyright (c) Steve Scherf et al.
# Submitted via: DiscPlay 4.0.4
# 
DISCID=f311a411
DTITLE=Various Artist - Tant qu'il y aura des slows CD 1
DYEAR=1900
DGENRE=
TTITLE0=Woman NENEH CHERRY
TTITLE1=Rush rush PAULA ABDUL
TTITLE2=Night calls JOE COCKER
TTITLE3=74 - 75   THE CONNELLS
TTITLE4=Still loving you  THE SCORPIONS
TTITLE5=I'd lie for you MEAT LOAF
TTITLE6=You  TEN SHARP
TTITLE7=How deep is our love PORTRAIT
TTITLE8=La solitudine LAURA PAUSINI
TTITLE9=Je vous aime adieu HELENE SEGARA
TTITLE10=Father and son BOYZONE
TTITLE11=Ready to follow you  DANA DAWSON
TTITLE12=(I just) died in your arms CUTTING CREW
TTITLE13=Julia  EURYTHMICS
TTITLE14='til you do me right   AFTER 7
TTITLE15=Anywhere for you  BACKSTREET BOYS
TTITLE16=I can't sleep baby  (if I)  R. KELLY
EXTD=
EXTT0=
EXTT1=
EXTT2=
EXTT3=
EXTT4=
EXTT5=
EXTT6=
EXTT7=
EXTT8=
EXTT9=
EXTT10=
EXTT11=
EXTT12=
EXTT13=
EXTT14=
EXTT15=
EXTT16=
PLAYORDER=
